<mxfile host="app.diagrams.net" modified="2024-03-09T06:02:22.019Z" agent="Mozilla/5.0 (Windows NT 10.0; Win64; x64) AppleWebKit/537.36 (KHTML, like Gecko) Chrome/122.0.0.0 Safari/537.36" etag="CF7fDPG18CMLttcgp4ow" version="23.1.1" type="device">
  <diagram name="Page-1" id="1e0CPMgvFJ0c-appd5nc">
    <mxGraphModel dx="3920" dy="1089" grid="1" gridSize="10" guides="1" tooltips="1" connect="1" arrows="1" fold="1" page="1" pageScale="1" pageWidth="850" pageHeight="1100" math="0" shadow="0">
      <root>
        <mxCell id="0" />
        <mxCell id="1" parent="0" />
        <mxCell id="-sLN44E5FuGDK6YIJdJi-1" value="START" style="ellipse;whiteSpace=wrap;html=1;fontSize=15;" parent="1" vertex="1">
          <mxGeometry x="280" y="90" width="120" height="60" as="geometry" />
        </mxCell>
        <mxCell id="-sLN44E5FuGDK6YIJdJi-2" value="" style="endArrow=classic;html=1;rounded=0;exitX=0.5;exitY=1;exitDx=0;exitDy=0;fontSize=15;" parent="1" source="-sLN44E5FuGDK6YIJdJi-3" edge="1">
          <mxGeometry width="50" height="50" relative="1" as="geometry">
            <mxPoint x="340" y="290" as="sourcePoint" />
            <mxPoint x="340" y="240" as="targetPoint" />
          </mxGeometry>
        </mxCell>
        <mxCell id="-sLN44E5FuGDK6YIJdJi-4" value="" style="endArrow=classic;html=1;rounded=0;exitX=0.5;exitY=1;exitDx=0;exitDy=0;entryX=0.5;entryY=0;entryDx=0;entryDy=0;fontSize=15;" parent="1" source="-sLN44E5FuGDK6YIJdJi-1" target="-sLN44E5FuGDK6YIJdJi-3" edge="1">
          <mxGeometry width="50" height="50" relative="1" as="geometry">
            <mxPoint x="340" y="150" as="sourcePoint" />
            <mxPoint x="340" y="190" as="targetPoint" />
          </mxGeometry>
        </mxCell>
        <mxCell id="-sLN44E5FuGDK6YIJdJi-3" value="Define a problem&amp;nbsp;" style="rounded=0;whiteSpace=wrap;html=1;fontSize=15;" parent="1" vertex="1">
          <mxGeometry x="280" y="193" width="120" height="60" as="geometry" />
        </mxCell>
        <mxCell id="-sLN44E5FuGDK6YIJdJi-6" value="" style="endArrow=classic;html=1;rounded=0;exitX=0.5;exitY=1;exitDx=0;exitDy=0;fontSize=15;" parent="1" source="-sLN44E5FuGDK6YIJdJi-3" target="-sLN44E5FuGDK6YIJdJi-7" edge="1">
          <mxGeometry width="50" height="50" relative="1" as="geometry">
            <mxPoint x="250" y="290" as="sourcePoint" />
            <mxPoint x="340" y="370" as="targetPoint" />
          </mxGeometry>
        </mxCell>
        <mxCell id="-sLN44E5FuGDK6YIJdJi-7" value="Gather Data" style="rounded=0;whiteSpace=wrap;html=1;fontSize=15;" parent="1" vertex="1">
          <mxGeometry x="280" y="299" width="120" height="60" as="geometry" />
        </mxCell>
        <mxCell id="-sLN44E5FuGDK6YIJdJi-8" value="" style="endArrow=classic;html=1;rounded=0;exitX=0.5;exitY=1;exitDx=0;exitDy=0;fontSize=15;" parent="1" source="-sLN44E5FuGDK6YIJdJi-7" edge="1">
          <mxGeometry width="50" height="50" relative="1" as="geometry">
            <mxPoint x="250" y="290" as="sourcePoint" />
            <mxPoint x="340" y="410" as="targetPoint" />
          </mxGeometry>
        </mxCell>
        <mxCell id="-sLN44E5FuGDK6YIJdJi-9" value="Data Cleaning and Pre-Processing" style="rounded=0;whiteSpace=wrap;html=1;fontSize=15;" parent="1" vertex="1">
          <mxGeometry x="276" y="409" width="120" height="59" as="geometry" />
        </mxCell>
        <mxCell id="-sLN44E5FuGDK6YIJdJi-11" value="" style="endArrow=classic;html=1;rounded=0;exitX=0.104;exitY=1.047;exitDx=0;exitDy=0;exitPerimeter=0;entryX=0.325;entryY=0.025;entryDx=0;entryDy=0;entryPerimeter=0;fontSize=15;" parent="1" source="-sLN44E5FuGDK6YIJdJi-9" target="-sLN44E5FuGDK6YIJdJi-15" edge="1">
          <mxGeometry width="50" height="50" relative="1" as="geometry">
            <mxPoint x="340" y="530" as="sourcePoint" />
            <mxPoint x="200" y="550" as="targetPoint" />
            <Array as="points">
              <mxPoint x="288" y="490" />
              <mxPoint x="288" y="520" />
              <mxPoint x="240" y="520" />
              <mxPoint x="200" y="520" />
            </Array>
          </mxGeometry>
        </mxCell>
        <mxCell id="-sLN44E5FuGDK6YIJdJi-13" value="" style="endArrow=classic;html=1;rounded=0;entryX=0.583;entryY=0;entryDx=0;entryDy=0;entryPerimeter=0;exitX=0.75;exitY=1;exitDx=0;exitDy=0;fontSize=15;" parent="1" target="-sLN44E5FuGDK6YIJdJi-14" edge="1">
          <mxGeometry width="50" height="50" relative="1" as="geometry">
            <mxPoint x="366" y="468" as="sourcePoint" />
            <mxPoint x="480.44000000000005" y="574.44" as="targetPoint" />
            <Array as="points">
              <mxPoint x="366" y="520" />
              <mxPoint x="420" y="520" />
              <mxPoint x="480" y="520" />
            </Array>
          </mxGeometry>
        </mxCell>
        <mxCell id="-sLN44E5FuGDK6YIJdJi-14" value="Testing Data&amp;nbsp;" style="rounded=0;whiteSpace=wrap;html=1;fontSize=15;" parent="1" vertex="1">
          <mxGeometry x="410" y="540" width="120" height="60" as="geometry" />
        </mxCell>
        <mxCell id="-sLN44E5FuGDK6YIJdJi-15" value="Training Data" style="rounded=0;whiteSpace=wrap;html=1;fontSize=15;" parent="1" vertex="1">
          <mxGeometry x="161" y="543" width="120" height="60" as="geometry" />
        </mxCell>
        <mxCell id="-sLN44E5FuGDK6YIJdJi-21" value="" style="edgeStyle=orthogonalEdgeStyle;rounded=0;orthogonalLoop=1;jettySize=auto;html=1;fontSize=15;" parent="1" source="-sLN44E5FuGDK6YIJdJi-17" target="-sLN44E5FuGDK6YIJdJi-20" edge="1">
          <mxGeometry relative="1" as="geometry" />
        </mxCell>
        <mxCell id="-sLN44E5FuGDK6YIJdJi-17" value="CNN Model Building" style="rounded=0;whiteSpace=wrap;html=1;fontSize=15;" parent="1" vertex="1">
          <mxGeometry x="270" y="645" width="120" height="60" as="geometry" />
        </mxCell>
        <mxCell id="-sLN44E5FuGDK6YIJdJi-18" value="" style="endArrow=classic;html=1;rounded=0;exitX=0.358;exitY=1.022;exitDx=0;exitDy=0;entryX=0.25;entryY=0;entryDx=0;entryDy=0;exitPerimeter=0;fontSize=15;" parent="1" source="-sLN44E5FuGDK6YIJdJi-15" target="-sLN44E5FuGDK6YIJdJi-17" edge="1">
          <mxGeometry width="50" height="50" relative="1" as="geometry">
            <mxPoint x="480" y="630" as="sourcePoint" />
            <mxPoint x="530" y="580" as="targetPoint" />
            <Array as="points">
              <mxPoint x="204" y="630" />
              <mxPoint x="240" y="630" />
              <mxPoint x="300" y="630" />
            </Array>
          </mxGeometry>
        </mxCell>
        <mxCell id="-sLN44E5FuGDK6YIJdJi-19" value="" style="endArrow=classic;html=1;rounded=0;entryX=0.75;entryY=0;entryDx=0;entryDy=0;exitX=0.584;exitY=1.081;exitDx=0;exitDy=0;exitPerimeter=0;fontSize=15;" parent="1" source="-sLN44E5FuGDK6YIJdJi-14" target="-sLN44E5FuGDK6YIJdJi-17" edge="1">
          <mxGeometry width="50" height="50" relative="1" as="geometry">
            <mxPoint x="480" y="660" as="sourcePoint" />
            <mxPoint x="310" y="710" as="targetPoint" />
            <Array as="points">
              <mxPoint x="480" y="630" />
              <mxPoint x="410" y="630" />
              <mxPoint x="360" y="630" />
            </Array>
          </mxGeometry>
        </mxCell>
        <mxCell id="-sLN44E5FuGDK6YIJdJi-23" value="" style="edgeStyle=orthogonalEdgeStyle;rounded=0;orthogonalLoop=1;jettySize=auto;html=1;fontSize=15;" parent="1" source="-sLN44E5FuGDK6YIJdJi-20" target="-sLN44E5FuGDK6YIJdJi-22" edge="1">
          <mxGeometry relative="1" as="geometry" />
        </mxCell>
        <mxCell id="-sLN44E5FuGDK6YIJdJi-20" value="Deployment" style="rounded=0;whiteSpace=wrap;html=1;fontSize=15;" parent="1" vertex="1">
          <mxGeometry x="270" y="746" width="120" height="60" as="geometry" />
        </mxCell>
        <mxCell id="-sLN44E5FuGDK6YIJdJi-22" value="End" style="ellipse;whiteSpace=wrap;html=1;rounded=0;fontSize=15;" parent="1" vertex="1">
          <mxGeometry x="290" y="843" width="80" height="40" as="geometry" />
        </mxCell>
        <mxCell id="_szJ1MI2SbH8s3XTZt4Q-3" value="" style="edgeStyle=orthogonalEdgeStyle;rounded=0;orthogonalLoop=1;jettySize=auto;html=1;endArrow=none;endFill=0;fontSize=14;" parent="1" source="_szJ1MI2SbH8s3XTZt4Q-1" target="_szJ1MI2SbH8s3XTZt4Q-2" edge="1">
          <mxGeometry relative="1" as="geometry" />
        </mxCell>
        <mxCell id="_szJ1MI2SbH8s3XTZt4Q-1" value="Image" style="rounded=0;whiteSpace=wrap;html=1;fontSize=14;" parent="1" vertex="1">
          <mxGeometry x="-1490" y="1280" width="120" height="60" as="geometry" />
        </mxCell>
        <mxCell id="_szJ1MI2SbH8s3XTZt4Q-5" value="" style="edgeStyle=orthogonalEdgeStyle;rounded=0;orthogonalLoop=1;jettySize=auto;html=1;endArrow=none;endFill=0;fontSize=14;" parent="1" source="_szJ1MI2SbH8s3XTZt4Q-2" target="_szJ1MI2SbH8s3XTZt4Q-4" edge="1">
          <mxGeometry relative="1" as="geometry" />
        </mxCell>
        <mxCell id="_szJ1MI2SbH8s3XTZt4Q-2" value="Trains_On" style="rhombus;whiteSpace=wrap;html=1;rounded=0;fontSize=14;" parent="1" vertex="1">
          <mxGeometry x="-1250" y="1271" width="80" height="80" as="geometry" />
        </mxCell>
        <mxCell id="_szJ1MI2SbH8s3XTZt4Q-12" value="" style="edgeStyle=orthogonalEdgeStyle;rounded=0;orthogonalLoop=1;jettySize=auto;html=1;endArrow=none;endFill=0;fontSize=14;" parent="1" source="_szJ1MI2SbH8s3XTZt4Q-4" target="_szJ1MI2SbH8s3XTZt4Q-11" edge="1">
          <mxGeometry relative="1" as="geometry" />
        </mxCell>
        <mxCell id="_szJ1MI2SbH8s3XTZt4Q-42" value="" style="edgeStyle=orthogonalEdgeStyle;rounded=0;orthogonalLoop=1;jettySize=auto;html=1;fontSize=14;endArrow=none;endFill=0;" parent="1" source="_szJ1MI2SbH8s3XTZt4Q-4" target="_szJ1MI2SbH8s3XTZt4Q-41" edge="1">
          <mxGeometry relative="1" as="geometry" />
        </mxCell>
        <mxCell id="_szJ1MI2SbH8s3XTZt4Q-4" value="Model" style="whiteSpace=wrap;html=1;rounded=0;fontSize=14;" parent="1" vertex="1">
          <mxGeometry x="-1110" y="1280" width="120" height="60" as="geometry" />
        </mxCell>
        <mxCell id="_szJ1MI2SbH8s3XTZt4Q-7" value="&lt;u style=&quot;font-size: 14px;&quot;&gt;image_id&lt;/u&gt;" style="ellipse;whiteSpace=wrap;html=1;fontSize=14;" parent="1" vertex="1">
          <mxGeometry x="-1640" y="1180" width="120" height="80" as="geometry" />
        </mxCell>
        <mxCell id="_szJ1MI2SbH8s3XTZt4Q-10" value="file_path" style="ellipse;whiteSpace=wrap;html=1;fontSize=14;" parent="1" vertex="1">
          <mxGeometry x="-1660" y="1330" width="120" height="80" as="geometry" />
        </mxCell>
        <mxCell id="_szJ1MI2SbH8s3XTZt4Q-14" value="" style="edgeStyle=orthogonalEdgeStyle;rounded=0;orthogonalLoop=1;jettySize=auto;html=1;endArrow=none;endFill=0;fontSize=14;" parent="1" source="_szJ1MI2SbH8s3XTZt4Q-11" target="_szJ1MI2SbH8s3XTZt4Q-13" edge="1">
          <mxGeometry relative="1" as="geometry" />
        </mxCell>
        <mxCell id="_szJ1MI2SbH8s3XTZt4Q-11" value="detects" style="rhombus;whiteSpace=wrap;html=1;rounded=0;fontSize=14;" parent="1" vertex="1">
          <mxGeometry x="-1090" y="1410" width="80" height="80" as="geometry" />
        </mxCell>
        <mxCell id="_szJ1MI2SbH8s3XTZt4Q-13" value="Disease" style="rounded=0;whiteSpace=wrap;html=1;fontSize=14;" parent="1" vertex="1">
          <mxGeometry x="-1110" y="1580" width="120" height="60" as="geometry" />
        </mxCell>
        <mxCell id="_szJ1MI2SbH8s3XTZt4Q-15" value="&lt;u style=&quot;font-size: 14px;&quot;&gt;disease_id&lt;/u&gt;" style="ellipse;whiteSpace=wrap;html=1;fontSize=14;" parent="1" vertex="1">
          <mxGeometry x="-1270" y="1570" width="120" height="80" as="geometry" />
        </mxCell>
        <mxCell id="_szJ1MI2SbH8s3XTZt4Q-16" value="disease_name" style="ellipse;whiteSpace=wrap;html=1;fontSize=14;" parent="1" vertex="1">
          <mxGeometry x="-930" y="1640" width="120" height="80" as="geometry" />
        </mxCell>
        <mxCell id="_szJ1MI2SbH8s3XTZt4Q-17" value="" style="endArrow=none;html=1;rounded=0;exitX=1;exitY=1;exitDx=0;exitDy=0;entryX=0;entryY=0;entryDx=0;entryDy=0;fontSize=14;" parent="1" source="_szJ1MI2SbH8s3XTZt4Q-7" target="_szJ1MI2SbH8s3XTZt4Q-1" edge="1">
          <mxGeometry width="50" height="50" relative="1" as="geometry">
            <mxPoint x="-1140" y="1430" as="sourcePoint" />
            <mxPoint x="-1090" y="1380" as="targetPoint" />
          </mxGeometry>
        </mxCell>
        <mxCell id="_szJ1MI2SbH8s3XTZt4Q-18" value="" style="endArrow=none;html=1;rounded=0;entryX=0;entryY=1;entryDx=0;entryDy=0;fontSize=14;" parent="1" source="_szJ1MI2SbH8s3XTZt4Q-10" target="_szJ1MI2SbH8s3XTZt4Q-1" edge="1">
          <mxGeometry width="50" height="50" relative="1" as="geometry">
            <mxPoint x="-1660" y="1600" as="sourcePoint" />
            <mxPoint x="-1610" y="1550" as="targetPoint" />
          </mxGeometry>
        </mxCell>
        <mxCell id="_szJ1MI2SbH8s3XTZt4Q-19" value="" style="endArrow=none;html=1;rounded=0;entryX=1;entryY=0.5;entryDx=0;entryDy=0;exitX=0;exitY=0.5;exitDx=0;exitDy=0;fontSize=14;" parent="1" source="_szJ1MI2SbH8s3XTZt4Q-13" target="_szJ1MI2SbH8s3XTZt4Q-15" edge="1">
          <mxGeometry width="50" height="50" relative="1" as="geometry">
            <mxPoint x="-1380" y="1520" as="sourcePoint" />
            <mxPoint x="-1330" y="1470" as="targetPoint" />
          </mxGeometry>
        </mxCell>
        <mxCell id="_szJ1MI2SbH8s3XTZt4Q-21" value="model_name" style="ellipse;whiteSpace=wrap;html=1;fontSize=14;" parent="1" vertex="1">
          <mxGeometry x="-1040" y="1090" width="120" height="80" as="geometry" />
        </mxCell>
        <mxCell id="_szJ1MI2SbH8s3XTZt4Q-22" value="&lt;u style=&quot;font-size: 14px;&quot;&gt;model_id&lt;/u&gt;" style="ellipse;whiteSpace=wrap;html=1;fontSize=14;" parent="1" vertex="1">
          <mxGeometry x="-1190" y="1090" width="120" height="80" as="geometry" />
        </mxCell>
        <mxCell id="_szJ1MI2SbH8s3XTZt4Q-23" value="" style="endArrow=none;html=1;rounded=0;entryX=0.5;entryY=1;entryDx=0;entryDy=0;exitX=0.5;exitY=0;exitDx=0;exitDy=0;fontSize=14;" parent="1" source="_szJ1MI2SbH8s3XTZt4Q-30" target="_szJ1MI2SbH8s3XTZt4Q-13" edge="1">
          <mxGeometry width="50" height="50" relative="1" as="geometry">
            <mxPoint x="-1050" y="1660" as="sourcePoint" />
            <mxPoint x="-1320" y="1480" as="targetPoint" />
          </mxGeometry>
        </mxCell>
        <mxCell id="_szJ1MI2SbH8s3XTZt4Q-24" value="" style="endArrow=none;html=1;rounded=0;entryX=0.033;entryY=0.288;entryDx=0;entryDy=0;entryPerimeter=0;exitX=1;exitY=0.5;exitDx=0;exitDy=0;fontSize=14;" parent="1" source="_szJ1MI2SbH8s3XTZt4Q-13" target="_szJ1MI2SbH8s3XTZt4Q-16" edge="1">
          <mxGeometry width="50" height="50" relative="1" as="geometry">
            <mxPoint x="-980" y="1610" as="sourcePoint" />
            <mxPoint x="-930" y="1560" as="targetPoint" />
          </mxGeometry>
        </mxCell>
        <mxCell id="_szJ1MI2SbH8s3XTZt4Q-26" value="" style="endArrow=none;html=1;rounded=0;exitX=0.5;exitY=0;exitDx=0;exitDy=0;fontSize=14;" parent="1" source="_szJ1MI2SbH8s3XTZt4Q-4" target="_szJ1MI2SbH8s3XTZt4Q-22" edge="1">
          <mxGeometry width="50" height="50" relative="1" as="geometry">
            <mxPoint x="-1060" y="1260" as="sourcePoint" />
            <mxPoint x="-1140" y="1190" as="targetPoint" />
          </mxGeometry>
        </mxCell>
        <mxCell id="_szJ1MI2SbH8s3XTZt4Q-28" value="resolution" style="ellipse;whiteSpace=wrap;html=1;fontSize=14;" parent="1" vertex="1">
          <mxGeometry x="-1560" y="1410" width="120" height="80" as="geometry" />
        </mxCell>
        <mxCell id="_szJ1MI2SbH8s3XTZt4Q-29" value="" style="endArrow=none;html=1;rounded=0;entryX=0.5;entryY=1;entryDx=0;entryDy=0;exitX=0.761;exitY=0.083;exitDx=0;exitDy=0;exitPerimeter=0;fontSize=14;" parent="1" source="_szJ1MI2SbH8s3XTZt4Q-28" target="_szJ1MI2SbH8s3XTZt4Q-1" edge="1">
          <mxGeometry width="50" height="50" relative="1" as="geometry">
            <mxPoint x="-1530" y="1460" as="sourcePoint" />
            <mxPoint x="-1480" y="1410" as="targetPoint" />
          </mxGeometry>
        </mxCell>
        <mxCell id="_szJ1MI2SbH8s3XTZt4Q-30" value="Caused_by" style="ellipse;whiteSpace=wrap;html=1;fontSize=14;" parent="1" vertex="1">
          <mxGeometry x="-1110" y="1710" width="120" height="80" as="geometry" />
        </mxCell>
        <mxCell id="_szJ1MI2SbH8s3XTZt4Q-36" value="" style="endArrow=none;html=1;rounded=0;entryX=0.354;entryY=0.984;entryDx=0;entryDy=0;entryPerimeter=0;exitX=0.589;exitY=0.032;exitDx=0;exitDy=0;exitPerimeter=0;fontSize=14;" parent="1" source="_szJ1MI2SbH8s3XTZt4Q-4" target="_szJ1MI2SbH8s3XTZt4Q-21" edge="1">
          <mxGeometry width="50" height="50" relative="1" as="geometry">
            <mxPoint x="-1050" y="1290" as="sourcePoint" />
            <mxPoint x="-1000" y="1240" as="targetPoint" />
          </mxGeometry>
        </mxCell>
        <mxCell id="_szJ1MI2SbH8s3XTZt4Q-39" value="&lt;u style=&quot;font-size: 14px;&quot;&gt;plant_id&lt;/u&gt;" style="ellipse;whiteSpace=wrap;html=1;fontSize=14;" parent="1" vertex="1">
          <mxGeometry x="-750" y="1130" width="120" height="80" as="geometry" />
        </mxCell>
        <mxCell id="_szJ1MI2SbH8s3XTZt4Q-40" value="plant_name" style="ellipse;whiteSpace=wrap;html=1;fontSize=14;" parent="1" vertex="1">
          <mxGeometry x="-750" y="1400" width="120" height="80" as="geometry" />
        </mxCell>
        <mxCell id="_szJ1MI2SbH8s3XTZt4Q-45" value="" style="edgeStyle=orthogonalEdgeStyle;rounded=0;orthogonalLoop=1;jettySize=auto;html=1;fontSize=14;endArrow=none;endFill=0;" parent="1" source="_szJ1MI2SbH8s3XTZt4Q-41" target="_szJ1MI2SbH8s3XTZt4Q-44" edge="1">
          <mxGeometry relative="1" as="geometry" />
        </mxCell>
        <mxCell id="_szJ1MI2SbH8s3XTZt4Q-41" value="Classifies" style="rhombus;whiteSpace=wrap;html=1;fontSize=14;rounded=0;" parent="1" vertex="1">
          <mxGeometry x="-890" y="1270" width="80" height="80" as="geometry" />
        </mxCell>
        <mxCell id="_szJ1MI2SbH8s3XTZt4Q-44" value="Plant" style="rounded=0;whiteSpace=wrap;html=1;fontSize=14;" parent="1" vertex="1">
          <mxGeometry x="-750" y="1280" width="120" height="60" as="geometry" />
        </mxCell>
        <mxCell id="_szJ1MI2SbH8s3XTZt4Q-46" value="" style="endArrow=none;html=1;rounded=0;entryX=0.5;entryY=1;entryDx=0;entryDy=0;exitX=0.5;exitY=0;exitDx=0;exitDy=0;fontSize=14;" parent="1" source="_szJ1MI2SbH8s3XTZt4Q-44" target="_szJ1MI2SbH8s3XTZt4Q-39" edge="1">
          <mxGeometry width="50" height="50" relative="1" as="geometry">
            <mxPoint x="-720" y="1300" as="sourcePoint" />
            <mxPoint x="-670" y="1250" as="targetPoint" />
          </mxGeometry>
        </mxCell>
        <mxCell id="_szJ1MI2SbH8s3XTZt4Q-47" value="" style="endArrow=none;html=1;rounded=0;entryX=0.5;entryY=1;entryDx=0;entryDy=0;exitX=0.5;exitY=0;exitDx=0;exitDy=0;fontSize=14;" parent="1" source="_szJ1MI2SbH8s3XTZt4Q-40" target="_szJ1MI2SbH8s3XTZt4Q-44" edge="1">
          <mxGeometry width="50" height="50" relative="1" as="geometry">
            <mxPoint x="-750" y="1410" as="sourcePoint" />
            <mxPoint x="-700" y="1360" as="targetPoint" />
          </mxGeometry>
        </mxCell>
        <mxCell id="_szJ1MI2SbH8s3XTZt4Q-68" value="Start" style="ellipse;whiteSpace=wrap;html=1;fontSize=22;" parent="1" vertex="1">
          <mxGeometry x="359" y="1300" width="120" height="60" as="geometry" />
        </mxCell>
        <mxCell id="_szJ1MI2SbH8s3XTZt4Q-69" value="" style="endArrow=classic;html=1;rounded=0;exitX=0.5;exitY=1;exitDx=0;exitDy=0;fontSize=16;" parent="1" source="_szJ1MI2SbH8s3XTZt4Q-71" edge="1">
          <mxGeometry width="50" height="50" relative="1" as="geometry">
            <mxPoint x="419" y="1433.5" as="sourcePoint" />
            <mxPoint x="419" y="1383.5" as="targetPoint" />
          </mxGeometry>
        </mxCell>
        <mxCell id="_szJ1MI2SbH8s3XTZt4Q-70" value="" style="endArrow=classic;html=1;rounded=0;exitX=0.5;exitY=1;exitDx=0;exitDy=0;entryX=0.5;entryY=0;entryDx=0;entryDy=0;fontSize=16;" parent="1" source="_szJ1MI2SbH8s3XTZt4Q-68" target="_szJ1MI2SbH8s3XTZt4Q-71" edge="1">
          <mxGeometry width="50" height="50" relative="1" as="geometry">
            <mxPoint x="419" y="1293.5" as="sourcePoint" />
            <mxPoint x="419" y="1333.5" as="targetPoint" />
          </mxGeometry>
        </mxCell>
        <mxCell id="_szJ1MI2SbH8s3XTZt4Q-71" value="Input Image" style="rounded=0;whiteSpace=wrap;html=1;fontSize=16;" parent="1" vertex="1">
          <mxGeometry x="359" y="1400" width="120" height="60" as="geometry" />
        </mxCell>
        <mxCell id="_szJ1MI2SbH8s3XTZt4Q-72" value="" style="endArrow=classic;html=1;rounded=0;exitX=0.5;exitY=1;exitDx=0;exitDy=0;fontSize=16;" parent="1" source="_szJ1MI2SbH8s3XTZt4Q-71" target="_szJ1MI2SbH8s3XTZt4Q-73" edge="1">
          <mxGeometry width="50" height="50" relative="1" as="geometry">
            <mxPoint x="329" y="1433.5" as="sourcePoint" />
            <mxPoint x="419" y="1513.5" as="targetPoint" />
          </mxGeometry>
        </mxCell>
        <mxCell id="_szJ1MI2SbH8s3XTZt4Q-73" value="Image Cleaning &lt;br style=&quot;font-size: 16px;&quot;&gt;and&lt;br style=&quot;font-size: 16px;&quot;&gt;Pre-Processing" style="rounded=0;whiteSpace=wrap;html=1;fontSize=16;" parent="1" vertex="1">
          <mxGeometry x="359" y="1490" width="120" height="60" as="geometry" />
        </mxCell>
        <mxCell id="_szJ1MI2SbH8s3XTZt4Q-74" value="" style="endArrow=classic;html=1;rounded=0;exitX=0.5;exitY=1;exitDx=0;exitDy=0;fontSize=16;entryX=0.534;entryY=0.014;entryDx=0;entryDy=0;entryPerimeter=0;" parent="1" source="_szJ1MI2SbH8s3XTZt4Q-73" target="_szJ1MI2SbH8s3XTZt4Q-75" edge="1">
          <mxGeometry width="50" height="50" relative="1" as="geometry">
            <mxPoint x="329" y="1433.5" as="sourcePoint" />
            <mxPoint x="419" y="1553.5" as="targetPoint" />
          </mxGeometry>
        </mxCell>
        <mxCell id="_szJ1MI2SbH8s3XTZt4Q-75" value="Feature Extraction" style="rounded=0;whiteSpace=wrap;html=1;fontSize=16;" parent="1" vertex="1">
          <mxGeometry x="355" y="1580" width="120" height="59" as="geometry" />
        </mxCell>
        <mxCell id="_szJ1MI2SbH8s3XTZt4Q-79" value="Convolutional Neural Network Training" style="rounded=0;whiteSpace=wrap;html=1;fontSize=16;" parent="1" vertex="1">
          <mxGeometry x="355" y="1680" width="120" height="60" as="geometry" />
        </mxCell>
        <mxCell id="_szJ1MI2SbH8s3XTZt4Q-84" value="" style="edgeStyle=orthogonalEdgeStyle;rounded=0;orthogonalLoop=1;jettySize=auto;html=1;exitX=1;exitY=0.5;exitDx=0;exitDy=0;entryX=0.5;entryY=0;entryDx=0;entryDy=0;fontSize=16;" parent="1" source="_szJ1MI2SbH8s3XTZt4Q-88" target="_szJ1MI2SbH8s3XTZt4Q-85" edge="1">
          <mxGeometry relative="1" as="geometry">
            <mxPoint x="409" y="1986.5" as="targetPoint" />
          </mxGeometry>
        </mxCell>
        <mxCell id="_szJ1MI2SbH8s3XTZt4Q-85" value="Healthy Plant" style="rounded=0;whiteSpace=wrap;html=1;fontSize=16;" parent="1" vertex="1">
          <mxGeometry x="483" y="1850" width="120" height="60" as="geometry" />
        </mxCell>
        <mxCell id="_szJ1MI2SbH8s3XTZt4Q-86" value="" style="endArrow=classic;html=1;rounded=0;entryX=0.5;entryY=0;entryDx=0;entryDy=0;fontSize=16;exitX=0.546;exitY=1.017;exitDx=0;exitDy=0;exitPerimeter=0;" parent="1" source="_szJ1MI2SbH8s3XTZt4Q-75" edge="1">
          <mxGeometry width="50" height="50" relative="1" as="geometry">
            <mxPoint x="420" y="1650" as="sourcePoint" />
            <mxPoint x="420" y="1680" as="targetPoint" />
          </mxGeometry>
        </mxCell>
        <mxCell id="_szJ1MI2SbH8s3XTZt4Q-88" value="&lt;font style=&quot;font-size: 12px;&quot;&gt;Classification&lt;/font&gt;" style="rhombus;whiteSpace=wrap;html=1;fontSize=12;fontStyle=1" parent="1" vertex="1">
          <mxGeometry x="379" y="1770" width="80" height="80" as="geometry" />
        </mxCell>
        <mxCell id="_szJ1MI2SbH8s3XTZt4Q-90" value="" style="endArrow=classic;html=1;rounded=0;entryX=0.5;entryY=0;entryDx=0;entryDy=0;exitX=0.538;exitY=1.024;exitDx=0;exitDy=0;exitPerimeter=0;fontSize=16;" parent="1" source="_szJ1MI2SbH8s3XTZt4Q-79" target="_szJ1MI2SbH8s3XTZt4Q-88" edge="1">
          <mxGeometry width="50" height="50" relative="1" as="geometry">
            <mxPoint x="420" y="1740" as="sourcePoint" />
            <mxPoint x="470" y="1700" as="targetPoint" />
          </mxGeometry>
        </mxCell>
        <mxCell id="pmH-4W7MhGo3DxScrXCr-24" value="" style="group;fontSize=16;" parent="1" vertex="1" connectable="0">
          <mxGeometry x="-1595" y="2520" width="909" height="402" as="geometry" />
        </mxCell>
        <mxCell id="pmH-4W7MhGo3DxScrXCr-1" value="SmartAgro:&lt;br&gt;Plant Disease &lt;br style=&quot;font-size: 20px;&quot;&gt;Classification System" style="ellipse;whiteSpace=wrap;html=1;aspect=fixed;fontSize=20;" parent="pmH-4W7MhGo3DxScrXCr-24" vertex="1">
          <mxGeometry x="354" width="180" height="180" as="geometry" />
        </mxCell>
        <mxCell id="pmH-4W7MhGo3DxScrXCr-4" style="edgeStyle=orthogonalEdgeStyle;rounded=0;orthogonalLoop=1;jettySize=auto;html=1;exitX=1;exitY=0.25;exitDx=0;exitDy=0;entryX=0.008;entryY=0.457;entryDx=0;entryDy=0;entryPerimeter=0;fontSize=16;" parent="pmH-4W7MhGo3DxScrXCr-24" source="pmH-4W7MhGo3DxScrXCr-2" target="pmH-4W7MhGo3DxScrXCr-1" edge="1">
          <mxGeometry relative="1" as="geometry">
            <mxPoint x="154" y="80" as="sourcePoint" />
            <mxPoint x="334" y="80" as="targetPoint" />
            <Array as="points">
              <mxPoint x="180" y="82" />
              <mxPoint x="267" y="82" />
            </Array>
          </mxGeometry>
        </mxCell>
        <mxCell id="pmH-4W7MhGo3DxScrXCr-2" value="User" style="rounded=0;whiteSpace=wrap;html=1;imageWidth=30;fontSize=16;" parent="pmH-4W7MhGo3DxScrXCr-24" vertex="1">
          <mxGeometry y="58" width="180" height="102" as="geometry" />
        </mxCell>
        <mxCell id="pmH-4W7MhGo3DxScrXCr-5" style="edgeStyle=orthogonalEdgeStyle;rounded=0;orthogonalLoop=1;jettySize=auto;html=1;entryX=0.982;entryY=0.647;entryDx=0;entryDy=0;exitX=0;exitY=0.25;exitDx=0;exitDy=0;fontSize=16;entryPerimeter=0;" parent="pmH-4W7MhGo3DxScrXCr-24" target="pmH-4W7MhGo3DxScrXCr-1" edge="1">
          <mxGeometry relative="1" as="geometry">
            <mxPoint x="729" y="117" as="sourcePoint" />
            <mxPoint x="533.9999999999995" y="116" as="targetPoint" />
            <Array as="points" />
          </mxGeometry>
        </mxCell>
        <mxCell id="pmH-4W7MhGo3DxScrXCr-3" value="CNN Model" style="rounded=0;whiteSpace=wrap;html=1;fontSize=16;" parent="pmH-4W7MhGo3DxScrXCr-24" vertex="1">
          <mxGeometry x="729" y="58" width="180" height="100" as="geometry" />
        </mxCell>
        <mxCell id="pmH-4W7MhGo3DxScrXCr-6" value="Datasets" style="rounded=0;whiteSpace=wrap;html=1;fontSize=16;" parent="pmH-4W7MhGo3DxScrXCr-24" vertex="1">
          <mxGeometry x="353" y="302" width="180" height="100" as="geometry" />
        </mxCell>
        <mxCell id="pmH-4W7MhGo3DxScrXCr-9" value="" style="endArrow=classic;html=1;rounded=0;entryX=-0.009;entryY=0.801;entryDx=0;entryDy=0;fontSize=16;entryPerimeter=0;exitX=0.94;exitY=0.762;exitDx=0;exitDy=0;exitPerimeter=0;" parent="pmH-4W7MhGo3DxScrXCr-24" source="pmH-4W7MhGo3DxScrXCr-1" target="pmH-4W7MhGo3DxScrXCr-3" edge="1">
          <mxGeometry width="50" height="50" relative="1" as="geometry">
            <mxPoint x="525" y="137" as="sourcePoint" />
            <mxPoint x="718.5600000000002" y="135.5" as="targetPoint" />
          </mxGeometry>
        </mxCell>
        <mxCell id="pmH-4W7MhGo3DxScrXCr-11" value="" style="endArrow=classic;html=1;rounded=0;fontSize=16;exitX=0.454;exitY=1.01;exitDx=0;exitDy=0;exitPerimeter=0;" parent="pmH-4W7MhGo3DxScrXCr-24" source="pmH-4W7MhGo3DxScrXCr-1" edge="1">
          <mxGeometry width="50" height="50" relative="1" as="geometry">
            <mxPoint x="435" y="190" as="sourcePoint" />
            <mxPoint x="435" y="300" as="targetPoint" />
          </mxGeometry>
        </mxCell>
        <mxCell id="pmH-4W7MhGo3DxScrXCr-12" value="" style="endArrow=classic;html=1;rounded=0;exitX=0.003;exitY=0.56;exitDx=0;exitDy=0;exitPerimeter=0;entryX=1;entryY=0.426;entryDx=0;entryDy=0;entryPerimeter=0;fontSize=16;" parent="pmH-4W7MhGo3DxScrXCr-24" source="pmH-4W7MhGo3DxScrXCr-1" target="pmH-4W7MhGo3DxScrXCr-2" edge="1">
          <mxGeometry width="50" height="50" relative="1" as="geometry">
            <mxPoint x="204" y="220" as="sourcePoint" />
            <mxPoint x="134" y="100" as="targetPoint" />
          </mxGeometry>
        </mxCell>
        <mxCell id="pmH-4W7MhGo3DxScrXCr-13" value="" style="endArrow=classic;html=1;rounded=0;entryX=0.5;entryY=1;entryDx=0;entryDy=0;exitX=0.5;exitY=0;exitDx=0;exitDy=0;fontSize=16;" parent="pmH-4W7MhGo3DxScrXCr-24" edge="1">
          <mxGeometry width="50" height="50" relative="1" as="geometry">
            <mxPoint x="450" y="302" as="sourcePoint" />
            <mxPoint x="451" y="180" as="targetPoint" />
          </mxGeometry>
        </mxCell>
        <mxCell id="pmH-4W7MhGo3DxScrXCr-16" value="Upload Image" style="text;html=1;align=center;verticalAlign=middle;resizable=0;points=[];autosize=1;strokeColor=none;fillColor=none;fontSize=16;" parent="pmH-4W7MhGo3DxScrXCr-24" vertex="1">
          <mxGeometry x="199" y="48" width="120" height="30" as="geometry" />
        </mxCell>
        <mxCell id="pmH-4W7MhGo3DxScrXCr-17" value="Provide Results" style="text;html=1;align=center;verticalAlign=middle;resizable=0;points=[];autosize=1;strokeColor=none;fillColor=none;fontSize=16;" parent="pmH-4W7MhGo3DxScrXCr-24" vertex="1">
          <mxGeometry x="184" y="120" width="140" height="30" as="geometry" />
        </mxCell>
        <mxCell id="pmH-4W7MhGo3DxScrXCr-18" value="Supply Image" style="text;html=1;align=center;verticalAlign=middle;resizable=0;points=[];autosize=1;strokeColor=none;fillColor=none;fontSize=16;" parent="pmH-4W7MhGo3DxScrXCr-24" vertex="1">
          <mxGeometry x="568" y="140" width="120" height="30" as="geometry" />
        </mxCell>
        <mxCell id="pmH-4W7MhGo3DxScrXCr-19" value="Detects Disease" style="text;html=1;align=center;verticalAlign=middle;resizable=0;points=[];autosize=1;strokeColor=none;fillColor=none;fontSize=16;" parent="pmH-4W7MhGo3DxScrXCr-24" vertex="1">
          <mxGeometry x="563" y="90" width="140" height="30" as="geometry" />
        </mxCell>
        <mxCell id="pmH-4W7MhGo3DxScrXCr-20" value="Supply datasets for training" style="text;html=1;align=center;verticalAlign=middle;resizable=0;points=[];autosize=1;strokeColor=none;fillColor=none;fontSize=16;" parent="pmH-4W7MhGo3DxScrXCr-24" vertex="1">
          <mxGeometry x="210" y="230" width="220" height="30" as="geometry" />
        </mxCell>
        <mxCell id="pmH-4W7MhGo3DxScrXCr-21" value="Get Processed datasets" style="text;html=1;align=center;verticalAlign=middle;resizable=0;points=[];autosize=1;strokeColor=none;fillColor=none;fontSize=16;" parent="pmH-4W7MhGo3DxScrXCr-24" vertex="1">
          <mxGeometry x="440" y="230" width="190" height="30" as="geometry" />
        </mxCell>
        <mxCell id="pmH-4W7MhGo3DxScrXCr-22" value="" style="endArrow=classic;html=1;rounded=0;exitX=1.006;exitY=0.424;exitDx=0;exitDy=0;exitPerimeter=0;entryX=-0.004;entryY=0.188;entryDx=0;entryDy=0;entryPerimeter=0;fontSize=16;" parent="pmH-4W7MhGo3DxScrXCr-24" source="pmH-4W7MhGo3DxScrXCr-1" target="pmH-4W7MhGo3DxScrXCr-3" edge="1">
          <mxGeometry width="50" height="50" relative="1" as="geometry">
            <mxPoint x="774" y="47" as="sourcePoint" />
            <mxPoint x="724" y="90" as="targetPoint" />
            <Array as="points" />
          </mxGeometry>
        </mxCell>
        <mxCell id="pmH-4W7MhGo3DxScrXCr-23" value="Train Model" style="text;html=1;align=center;verticalAlign=middle;resizable=0;points=[];autosize=1;strokeColor=none;fillColor=none;fontSize=16;" parent="pmH-4W7MhGo3DxScrXCr-24" vertex="1">
          <mxGeometry x="578" y="48" width="110" height="30" as="geometry" />
        </mxCell>
        <mxCell id="pmH-4W7MhGo3DxScrXCr-128" value="" style="group" parent="1" vertex="1" connectable="0">
          <mxGeometry x="1649" y="179" width="901" height="581" as="geometry" />
        </mxCell>
        <mxCell id="pmH-4W7MhGo3DxScrXCr-125" value="&lt;span style=&quot;font-family: Söhne, ui-sans-serif, system-ui, -apple-system, &amp;quot;Segoe UI&amp;quot;, Roboto, Ubuntu, Cantarell, &amp;quot;Noto Sans&amp;quot;, sans-serif, &amp;quot;Helvetica Neue&amp;quot;, Arial, &amp;quot;Apple Color Emoji&amp;quot;, &amp;quot;Segoe UI Emoji&amp;quot;, &amp;quot;Segoe UI Symbol&amp;quot;, &amp;quot;Noto Color Emoji&amp;quot;; font-size: 16px; font-style: normal; font-variant-ligatures: normal; font-variant-caps: normal; font-weight: 400; letter-spacing: normal; orphans: 2; text-align: left; text-indent: 0px; text-transform: none; widows: 2; word-spacing: 0px; -webkit-text-stroke-width: 0px; text-decoration-thickness: initial; text-decoration-style: initial; text-decoration-color: initial; float: none; display: inline !important;&quot;&gt;Generated additional training samples&amp;nbsp;&lt;/span&gt;with different transformations." style="text;whiteSpace=wrap;html=1;fontSize=16;fontColor=default;" parent="pmH-4W7MhGo3DxScrXCr-128" vertex="1">
          <mxGeometry x="611" y="501" width="290" height="40" as="geometry" />
        </mxCell>
        <mxCell id="pmH-4W7MhGo3DxScrXCr-126" value="" style="group" parent="pmH-4W7MhGo3DxScrXCr-128" vertex="1" connectable="0">
          <mxGeometry width="791" height="581" as="geometry" />
        </mxCell>
        <mxCell id="pmH-4W7MhGo3DxScrXCr-101" value="" style="endArrow=classic;html=1;rounded=0;exitX=1.006;exitY=0.424;exitDx=0;exitDy=0;exitPerimeter=0;entryX=-0.004;entryY=0.188;entryDx=0;entryDy=0;entryPerimeter=0;fontSize=16;fontColor=default;" parent="pmH-4W7MhGo3DxScrXCr-126" edge="1">
          <mxGeometry width="50" height="50" relative="1" as="geometry">
            <mxPoint x="12.079999999999927" y="67.31999999999994" as="sourcePoint" />
            <mxPoint x="149.2800000000002" y="67.80000000000018" as="targetPoint" />
            <Array as="points" />
          </mxGeometry>
        </mxCell>
        <mxCell id="pmH-4W7MhGo3DxScrXCr-102" value="Provide Image &lt;br style=&quot;font-size: 16px;&quot;&gt;for Preprocessing" style="text;html=1;align=center;verticalAlign=middle;resizable=0;points=[];autosize=1;strokeColor=none;fillColor=none;fontSize=16;fontColor=default;" parent="pmH-4W7MhGo3DxScrXCr-126" vertex="1">
          <mxGeometry y="11" width="150" height="50" as="geometry" />
        </mxCell>
        <mxCell id="pmH-4W7MhGo3DxScrXCr-103" value="2.3 Augmentation" style="ellipse;whiteSpace=wrap;html=1;aspect=fixed;fontSize=16;fontColor=default;" parent="pmH-4W7MhGo3DxScrXCr-126" vertex="1">
          <mxGeometry x="521" y="301" width="180" height="180" as="geometry" />
        </mxCell>
        <mxCell id="pmH-4W7MhGo3DxScrXCr-104" value="2.2 Image Rescaling" style="ellipse;whiteSpace=wrap;html=1;aspect=fixed;fontSize=16;fontColor=default;" parent="pmH-4W7MhGo3DxScrXCr-126" vertex="1">
          <mxGeometry x="521" width="180" height="180" as="geometry" />
        </mxCell>
        <mxCell id="pmH-4W7MhGo3DxScrXCr-105" value="2.1 Image &lt;br style=&quot;font-size: 16px;&quot;&gt;Resizing" style="ellipse;whiteSpace=wrap;html=1;aspect=fixed;fontSize=16;fontColor=default;" parent="pmH-4W7MhGo3DxScrXCr-126" vertex="1">
          <mxGeometry x="150" y="1" width="180" height="180" as="geometry" />
        </mxCell>
        <mxCell id="pmH-4W7MhGo3DxScrXCr-108" value="Resized image to a &lt;br style=&quot;font-size: 16px;&quot;&gt;256*256 width &amp;amp; height" style="text;html=1;align=center;verticalAlign=middle;resizable=0;points=[];autosize=1;strokeColor=none;fillColor=none;fontSize=16;fontColor=default;" parent="pmH-4W7MhGo3DxScrXCr-126" vertex="1">
          <mxGeometry x="336" y="19" width="190" height="50" as="geometry" />
        </mxCell>
        <mxCell id="pmH-4W7MhGo3DxScrXCr-111" value="" style="endArrow=classic;html=1;rounded=0;entryX=0;entryY=0.5;entryDx=0;entryDy=0;exitX=1;exitY=0.5;exitDx=0;exitDy=0;fontSize=16;fontColor=default;" parent="pmH-4W7MhGo3DxScrXCr-126" source="pmH-4W7MhGo3DxScrXCr-105" target="pmH-4W7MhGo3DxScrXCr-104" edge="1">
          <mxGeometry width="50" height="50" relative="1" as="geometry">
            <mxPoint x="301" y="261" as="sourcePoint" />
            <mxPoint x="481" y="171" as="targetPoint" />
          </mxGeometry>
        </mxCell>
        <mxCell id="pmH-4W7MhGo3DxScrXCr-113" value="" style="endArrow=classic;html=1;rounded=0;exitX=0.5;exitY=1;exitDx=0;exitDy=0;entryX=0.5;entryY=0;entryDx=0;entryDy=0;fontSize=16;fontColor=default;" parent="pmH-4W7MhGo3DxScrXCr-126" source="pmH-4W7MhGo3DxScrXCr-104" target="pmH-4W7MhGo3DxScrXCr-103" edge="1">
          <mxGeometry width="50" height="50" relative="1" as="geometry">
            <mxPoint x="601" y="241" as="sourcePoint" />
            <mxPoint x="651" y="191" as="targetPoint" />
          </mxGeometry>
        </mxCell>
        <mxCell id="pmH-4W7MhGo3DxScrXCr-114" value="" style="endArrow=classic;html=1;rounded=0;exitX=0.5;exitY=1;exitDx=0;exitDy=0;fontSize=16;fontColor=default;" parent="pmH-4W7MhGo3DxScrXCr-126" edge="1">
          <mxGeometry width="50" height="50" relative="1" as="geometry">
            <mxPoint x="611" y="482" as="sourcePoint" />
            <mxPoint x="611" y="581" as="targetPoint" />
          </mxGeometry>
        </mxCell>
        <mxCell id="pmH-4W7MhGo3DxScrXCr-115" value="Scaled the pixel values &lt;br style=&quot;font-size: 16px;&quot;&gt;of the resized images" style="text;html=1;align=center;verticalAlign=middle;resizable=0;points=[];autosize=1;strokeColor=none;fillColor=none;fontSize=16;fontColor=default;" parent="pmH-4W7MhGo3DxScrXCr-126" vertex="1">
          <mxGeometry x="601" y="211" width="190" height="50" as="geometry" />
        </mxCell>
        <mxCell id="pmH-4W7MhGo3DxScrXCr-129" value="" style="group" parent="1" vertex="1" connectable="0">
          <mxGeometry x="1630" y="1159.5" width="901" height="581" as="geometry" />
        </mxCell>
        <mxCell id="pmH-4W7MhGo3DxScrXCr-131" value="" style="group" parent="pmH-4W7MhGo3DxScrXCr-129" vertex="1" connectable="0">
          <mxGeometry width="819" height="581" as="geometry" />
        </mxCell>
        <mxCell id="pmH-4W7MhGo3DxScrXCr-132" value="" style="endArrow=classic;html=1;rounded=0;exitX=1.006;exitY=0.424;exitDx=0;exitDy=0;exitPerimeter=0;entryX=-0.004;entryY=0.188;entryDx=0;entryDy=0;entryPerimeter=0;fontSize=16;fontColor=default;" parent="pmH-4W7MhGo3DxScrXCr-131" edge="1">
          <mxGeometry width="50" height="50" relative="1" as="geometry">
            <mxPoint x="12.079999999999927" y="67.31999999999994" as="sourcePoint" />
            <mxPoint x="149.2800000000002" y="67.80000000000018" as="targetPoint" />
            <Array as="points" />
          </mxGeometry>
        </mxCell>
        <mxCell id="pmH-4W7MhGo3DxScrXCr-133" value="Scaled Image" style="text;html=1;align=center;verticalAlign=middle;resizable=0;points=[];autosize=1;strokeColor=none;fillColor=none;fontSize=16;fontColor=default;" parent="pmH-4W7MhGo3DxScrXCr-131" vertex="1">
          <mxGeometry x="15" y="21" width="120" height="30" as="geometry" />
        </mxCell>
        <mxCell id="pmH-4W7MhGo3DxScrXCr-134" value="2.3.3 Vertical Flip" style="ellipse;whiteSpace=wrap;html=1;aspect=fixed;fontSize=16;fontColor=default;" parent="pmH-4W7MhGo3DxScrXCr-131" vertex="1">
          <mxGeometry x="521" y="301" width="180" height="180" as="geometry" />
        </mxCell>
        <mxCell id="pmH-4W7MhGo3DxScrXCr-135" value="2.3.2&amp;nbsp;Horizontal Flip" style="ellipse;whiteSpace=wrap;html=1;aspect=fixed;fontSize=16;fontColor=default;" parent="pmH-4W7MhGo3DxScrXCr-131" vertex="1">
          <mxGeometry x="521" width="180" height="180" as="geometry" />
        </mxCell>
        <mxCell id="pmH-4W7MhGo3DxScrXCr-136" value="2.3.1&amp;nbsp;Rotation" style="ellipse;whiteSpace=wrap;html=1;aspect=fixed;fontSize=16;fontColor=default;" parent="pmH-4W7MhGo3DxScrXCr-131" vertex="1">
          <mxGeometry x="150" y="1" width="180" height="180" as="geometry" />
        </mxCell>
        <mxCell id="pmH-4W7MhGo3DxScrXCr-138" value="" style="endArrow=classic;html=1;rounded=0;entryX=0;entryY=0.5;entryDx=0;entryDy=0;exitX=1;exitY=0.5;exitDx=0;exitDy=0;fontSize=16;fontColor=default;" parent="pmH-4W7MhGo3DxScrXCr-131" source="pmH-4W7MhGo3DxScrXCr-136" target="pmH-4W7MhGo3DxScrXCr-135" edge="1">
          <mxGeometry width="50" height="50" relative="1" as="geometry">
            <mxPoint x="301" y="261" as="sourcePoint" />
            <mxPoint x="481" y="171" as="targetPoint" />
          </mxGeometry>
        </mxCell>
        <mxCell id="pmH-4W7MhGo3DxScrXCr-139" value="" style="endArrow=classic;html=1;rounded=0;exitX=0.5;exitY=1;exitDx=0;exitDy=0;entryX=0.5;entryY=0;entryDx=0;entryDy=0;fontSize=16;fontColor=default;" parent="pmH-4W7MhGo3DxScrXCr-131" source="pmH-4W7MhGo3DxScrXCr-135" target="pmH-4W7MhGo3DxScrXCr-134" edge="1">
          <mxGeometry width="50" height="50" relative="1" as="geometry">
            <mxPoint x="601" y="241" as="sourcePoint" />
            <mxPoint x="651" y="191" as="targetPoint" />
          </mxGeometry>
        </mxCell>
        <mxCell id="pmH-4W7MhGo3DxScrXCr-140" value="" style="endArrow=classic;html=1;rounded=0;exitX=0.5;exitY=1;exitDx=0;exitDy=0;fontSize=16;fontColor=default;" parent="pmH-4W7MhGo3DxScrXCr-131" edge="1">
          <mxGeometry width="50" height="50" relative="1" as="geometry">
            <mxPoint x="611" y="482" as="sourcePoint" />
            <mxPoint x="611" y="581" as="targetPoint" />
          </mxGeometry>
        </mxCell>
        <mxCell id="pmH-4W7MhGo3DxScrXCr-141" value="Horizontally flipped image" style="text;html=1;align=center;verticalAlign=middle;resizable=0;points=[];autosize=1;strokeColor=none;fillColor=none;fontSize=16;fontColor=default;" parent="pmH-4W7MhGo3DxScrXCr-131" vertex="1">
          <mxGeometry x="609" y="221" width="210" height="30" as="geometry" />
        </mxCell>
        <mxCell id="pmH-4W7MhGo3DxScrXCr-130" value="Vertically Flipped Image" style="text;whiteSpace=wrap;html=1;fontSize=16;fontColor=default;" parent="pmH-4W7MhGo3DxScrXCr-131" vertex="1">
          <mxGeometry x="630" y="501" width="179" height="40" as="geometry" />
        </mxCell>
        <mxCell id="pmH-4W7MhGo3DxScrXCr-137" value="Rotated images to &lt;br&gt;have variations in orientation" style="text;html=1;align=center;verticalAlign=middle;resizable=0;points=[];autosize=1;strokeColor=none;fillColor=none;fontSize=16;fontColor=default;" parent="1" vertex="1">
          <mxGeometry x="1940" y="1159.5" width="230" height="50" as="geometry" />
        </mxCell>
        <mxCell id="pmH-4W7MhGo3DxScrXCr-46" value="1.0 Image&lt;br style=&quot;font-size: 26px;&quot;&gt;Acquisition" style="ellipse;whiteSpace=wrap;html=1;aspect=fixed;fontSize=26;" parent="1" vertex="1">
          <mxGeometry x="-150" y="2320" width="180" height="180" as="geometry" />
        </mxCell>
        <mxCell id="pmH-4W7MhGo3DxScrXCr-47" style="edgeStyle=orthogonalEdgeStyle;rounded=0;orthogonalLoop=1;jettySize=auto;html=1;exitX=1;exitY=0.25;exitDx=0;exitDy=0;entryX=0.008;entryY=0.457;entryDx=0;entryDy=0;entryPerimeter=0;fontSize=26;" parent="1" source="pmH-4W7MhGo3DxScrXCr-48" target="pmH-4W7MhGo3DxScrXCr-46" edge="1">
          <mxGeometry relative="1" as="geometry">
            <mxPoint x="-391" y="2400" as="sourcePoint" />
            <mxPoint x="-211" y="2400" as="targetPoint" />
            <Array as="points">
              <mxPoint x="-365" y="2402" />
              <mxPoint x="-278" y="2402" />
            </Array>
          </mxGeometry>
        </mxCell>
        <mxCell id="pmH-4W7MhGo3DxScrXCr-48" value="&lt;font style=&quot;font-size: 26px;&quot;&gt;User&lt;/font&gt;" style="rounded=0;whiteSpace=wrap;html=1;imageWidth=30;fontSize=26;" parent="1" vertex="1">
          <mxGeometry x="-580" y="2358.5" width="240" height="121" as="geometry" />
        </mxCell>
        <mxCell id="pmH-4W7MhGo3DxScrXCr-54" value="" style="endArrow=classic;html=1;rounded=0;exitX=0.003;exitY=0.56;exitDx=0;exitDy=0;exitPerimeter=0;entryX=1;entryY=0.5;entryDx=0;entryDy=0;fontSize=26;" parent="1" source="pmH-4W7MhGo3DxScrXCr-46" target="pmH-4W7MhGo3DxScrXCr-48" edge="1">
          <mxGeometry width="50" height="50" relative="1" as="geometry">
            <mxPoint x="-341" y="2540" as="sourcePoint" />
            <mxPoint x="-411" y="2420" as="targetPoint" />
          </mxGeometry>
        </mxCell>
        <mxCell id="pmH-4W7MhGo3DxScrXCr-56" value="Upload Image" style="text;html=1;align=center;verticalAlign=middle;resizable=0;points=[];autosize=1;strokeColor=none;fillColor=none;fontSize=26;" parent="1" vertex="1">
          <mxGeometry x="-330" y="2358.5" width="190" height="40" as="geometry" />
        </mxCell>
        <mxCell id="pmH-4W7MhGo3DxScrXCr-57" value="Provide Results" style="text;html=1;align=center;verticalAlign=middle;resizable=0;points=[];autosize=1;strokeColor=none;fillColor=none;fontSize=26;" parent="1" vertex="1">
          <mxGeometry x="-340" y="2428" width="210" height="40" as="geometry" />
        </mxCell>
        <mxCell id="pmH-4W7MhGo3DxScrXCr-61" value="Providing datasets &lt;br style=&quot;font-size: 26px;&quot;&gt;for Training" style="text;html=1;align=center;verticalAlign=middle;resizable=0;points=[];autosize=1;strokeColor=none;fillColor=none;fontSize=26;" parent="1" vertex="1">
          <mxGeometry x="-130" y="2625" width="240" height="80" as="geometry" />
        </mxCell>
        <mxCell id="pmH-4W7MhGo3DxScrXCr-62" value="" style="endArrow=classic;html=1;rounded=0;exitX=1.006;exitY=0.424;exitDx=0;exitDy=0;exitPerimeter=0;entryX=-0.004;entryY=0.188;entryDx=0;entryDy=0;entryPerimeter=0;fontSize=26;" parent="1" source="pmH-4W7MhGo3DxScrXCr-46" edge="1">
          <mxGeometry width="50" height="50" relative="1" as="geometry">
            <mxPoint x="229" y="2367" as="sourcePoint" />
            <mxPoint x="183.2800000000002" y="2396.8" as="targetPoint" />
            <Array as="points" />
          </mxGeometry>
        </mxCell>
        <mxCell id="pmH-4W7MhGo3DxScrXCr-63" value="Provide Image &lt;br style=&quot;font-size: 26px;&quot;&gt;for &lt;br&gt;Preprocessing" style="text;html=1;align=center;verticalAlign=middle;resizable=0;points=[];autosize=1;strokeColor=none;fillColor=none;fontSize=26;" parent="1" vertex="1">
          <mxGeometry x="14" y="2260" width="190" height="110" as="geometry" />
        </mxCell>
        <mxCell id="pmH-4W7MhGo3DxScrXCr-67" value="3.0 Convert into &lt;br style=&quot;font-size: 26px;&quot;&gt;numpy array" style="ellipse;whiteSpace=wrap;html=1;aspect=fixed;fontSize=26;" parent="1" vertex="1">
          <mxGeometry x="540" y="2329" width="180" height="180" as="geometry" />
        </mxCell>
        <mxCell id="pmH-4W7MhGo3DxScrXCr-68" value="2.0 Image &lt;br style=&quot;font-size: 26px;&quot;&gt;Preprocessing" style="ellipse;whiteSpace=wrap;html=1;aspect=fixed;fontSize=26;" parent="1" vertex="1">
          <mxGeometry x="184" y="2330" width="180" height="180" as="geometry" />
        </mxCell>
        <mxCell id="pmH-4W7MhGo3DxScrXCr-69" value="5.0 Disease Classification&amp;nbsp;" style="ellipse;whiteSpace=wrap;html=1;aspect=fixed;fontSize=26;" parent="1" vertex="1">
          <mxGeometry x="1020" y="2630" width="180" height="180" as="geometry" />
        </mxCell>
        <mxCell id="pmH-4W7MhGo3DxScrXCr-70" value="6.0 No Disease detection&amp;nbsp;&amp;nbsp;" style="ellipse;whiteSpace=wrap;html=1;aspect=fixed;fontSize=26;" parent="1" vertex="1">
          <mxGeometry x="540" y="2912" width="180" height="180" as="geometry" />
        </mxCell>
        <mxCell id="pmH-4W7MhGo3DxScrXCr-71" value="Preprocessed&lt;br&gt;&amp;nbsp;Image" style="text;html=1;align=center;verticalAlign=middle;resizable=0;points=[];autosize=1;strokeColor=none;fillColor=none;fontSize=26;" parent="1" vertex="1">
          <mxGeometry x="380" y="2338.5" width="180" height="80" as="geometry" />
        </mxCell>
        <mxCell id="pmH-4W7MhGo3DxScrXCr-73" value="7.0 Train the &lt;br style=&quot;font-size: 26px;&quot;&gt;CNN model" style="ellipse;whiteSpace=wrap;html=1;aspect=fixed;fontSize=26;" parent="1" vertex="1">
          <mxGeometry x="120" y="2631" width="180" height="180" as="geometry" />
        </mxCell>
        <mxCell id="pmH-4W7MhGo3DxScrXCr-75" value="" style="endArrow=classic;html=1;rounded=0;fontSize=26;startArrow=none;startFill=0;entryX=0;entryY=0.5;entryDx=0;entryDy=0;exitX=1;exitY=0.5;exitDx=0;exitDy=0;" parent="1" source="pmH-4W7MhGo3DxScrXCr-73" target="tU3aZVx3h9fz71cdDEAz-5" edge="1">
          <mxGeometry width="50" height="50" relative="1" as="geometry">
            <mxPoint x="380" y="2785" as="sourcePoint" />
            <mxPoint x="450" y="2750" as="targetPoint" />
          </mxGeometry>
        </mxCell>
        <mxCell id="pmH-4W7MhGo3DxScrXCr-76" value="" style="endArrow=classic;html=1;rounded=0;entryX=0;entryY=0.5;entryDx=0;entryDy=0;exitX=1;exitY=0.5;exitDx=0;exitDy=0;fontSize=26;" parent="1" source="pmH-4W7MhGo3DxScrXCr-68" target="pmH-4W7MhGo3DxScrXCr-67" edge="1">
          <mxGeometry width="50" height="50" relative="1" as="geometry">
            <mxPoint x="335" y="2590" as="sourcePoint" />
            <mxPoint x="515" y="2500" as="targetPoint" />
          </mxGeometry>
        </mxCell>
        <mxCell id="pmH-4W7MhGo3DxScrXCr-85" value="" style="edgeStyle=orthogonalEdgeStyle;rounded=0;orthogonalLoop=1;jettySize=auto;html=1;entryX=0.013;entryY=0.613;entryDx=0;entryDy=0;entryPerimeter=0;fontSize=26;" parent="1" target="pmH-4W7MhGo3DxScrXCr-69" edge="1">
          <mxGeometry relative="1" as="geometry">
            <mxPoint x="755" y="2740" as="sourcePoint" />
            <mxPoint x="846" y="2739" as="targetPoint" />
          </mxGeometry>
        </mxCell>
        <mxCell id="pmH-4W7MhGo3DxScrXCr-77" value="" style="endArrow=classic;html=1;rounded=0;exitX=0.5;exitY=1;exitDx=0;exitDy=0;entryX=0.45;entryY=0.017;entryDx=0;entryDy=0;fontSize=26;entryPerimeter=0;" parent="1" source="pmH-4W7MhGo3DxScrXCr-67" target="tU3aZVx3h9fz71cdDEAz-5" edge="1">
          <mxGeometry width="50" height="50" relative="1" as="geometry">
            <mxPoint x="635" y="2570" as="sourcePoint" />
            <mxPoint x="630" y="2630" as="targetPoint" />
          </mxGeometry>
        </mxCell>
        <mxCell id="pmH-4W7MhGo3DxScrXCr-78" value="" style="endArrow=classic;html=1;rounded=0;entryX=0.557;entryY=0.013;entryDx=0;entryDy=0;exitX=0.5;exitY=1;exitDx=0;exitDy=0;entryPerimeter=0;fontSize=26;" parent="1" source="tU3aZVx3h9fz71cdDEAz-5" target="pmH-4W7MhGo3DxScrXCr-70" edge="1">
          <mxGeometry width="50" height="50" relative="1" as="geometry">
            <mxPoint x="639" y="2811" as="sourcePoint" />
            <mxPoint x="639" y="2913" as="targetPoint" />
          </mxGeometry>
        </mxCell>
        <mxCell id="pmH-4W7MhGo3DxScrXCr-79" value="Numpy Array" style="text;html=1;align=center;verticalAlign=middle;resizable=0;points=[];autosize=1;strokeColor=none;fillColor=none;fontSize=26;" parent="1" vertex="1">
          <mxGeometry x="640" y="2570" width="170" height="40" as="geometry" />
        </mxCell>
        <mxCell id="pmH-4W7MhGo3DxScrXCr-80" value="Detects Plant&lt;br&gt;&amp;nbsp;as Healthy" style="text;html=1;align=center;verticalAlign=middle;resizable=0;points=[];autosize=1;strokeColor=none;fillColor=none;fontSize=26;" parent="1" vertex="1">
          <mxGeometry x="650" y="2820" width="180" height="80" as="geometry" />
        </mxCell>
        <mxCell id="pmH-4W7MhGo3DxScrXCr-81" value="" style="endArrow=classic;html=1;rounded=0;entryX=0.393;entryY=0.997;entryDx=0;entryDy=0;exitX=0.421;exitY=0.016;exitDx=0;exitDy=0;entryPerimeter=0;exitPerimeter=0;fontSize=26;" parent="1" source="pmH-4W7MhGo3DxScrXCr-70" target="tU3aZVx3h9fz71cdDEAz-5" edge="1">
          <mxGeometry width="50" height="50" relative="1" as="geometry">
            <mxPoint x="615" y="2912" as="sourcePoint" />
            <mxPoint x="614.52" y="2806.76" as="targetPoint" />
          </mxGeometry>
        </mxCell>
        <mxCell id="pmH-4W7MhGo3DxScrXCr-82" value="Provides status &lt;br style=&quot;font-size: 26px;&quot;&gt;as healthy plant" style="text;html=1;align=center;verticalAlign=middle;resizable=0;points=[];autosize=1;strokeColor=none;fillColor=none;fontSize=26;" parent="1" vertex="1">
          <mxGeometry x="390" y="2811" width="210" height="80" as="geometry" />
        </mxCell>
        <mxCell id="pmH-4W7MhGo3DxScrXCr-86" value="Detects disease&amp;nbsp;" style="text;html=1;align=center;verticalAlign=middle;resizable=0;points=[];autosize=1;strokeColor=none;fillColor=none;fontSize=26;" parent="1" vertex="1">
          <mxGeometry x="790" y="2750" width="220" height="40" as="geometry" />
        </mxCell>
        <mxCell id="pmH-4W7MhGo3DxScrXCr-87" value="Provides information&lt;br style=&quot;font-size: 26px;&quot;&gt;&amp;nbsp;about disease type" style="text;html=1;align=center;verticalAlign=middle;resizable=0;points=[];autosize=1;strokeColor=none;fillColor=none;fontSize=26;" parent="1" vertex="1">
          <mxGeometry x="760" y="2645" width="260" height="80" as="geometry" />
        </mxCell>
        <mxCell id="pmH-4W7MhGo3DxScrXCr-88" value="" style="endArrow=classic;html=1;rounded=0;entryX=1;entryY=0.5;entryDx=0;entryDy=0;exitX=0;exitY=0.5;exitDx=0;exitDy=0;fontSize=26;" parent="1" source="pmH-4W7MhGo3DxScrXCr-69" target="tU3aZVx3h9fz71cdDEAz-5" edge="1">
          <mxGeometry width="50" height="50" relative="1" as="geometry">
            <mxPoint x="720" y="2770" as="sourcePoint" />
            <mxPoint x="720" y="2720" as="targetPoint" />
          </mxGeometry>
        </mxCell>
        <mxCell id="pmH-4W7MhGo3DxScrXCr-89" value="Train the model" style="text;html=1;align=center;verticalAlign=middle;resizable=0;points=[];autosize=1;strokeColor=none;fillColor=none;fontSize=26;" parent="1" vertex="1">
          <mxGeometry x="310" y="2665" width="200" height="40" as="geometry" />
        </mxCell>
        <mxCell id="pmH-4W7MhGo3DxScrXCr-55" value="" style="endArrow=classic;html=1;rounded=0;entryX=0;entryY=0.5;entryDx=0;entryDy=0;fontSize=26;exitX=1;exitY=0.5;exitDx=0;exitDy=0;" parent="1" source="tU3aZVx3h9fz71cdDEAz-7" target="pmH-4W7MhGo3DxScrXCr-73" edge="1">
          <mxGeometry width="50" height="50" relative="1" as="geometry">
            <mxPoint x="25" y="2720" as="sourcePoint" />
            <mxPoint x="-94" y="2500" as="targetPoint" />
          </mxGeometry>
        </mxCell>
        <mxCell id="tU3aZVx3h9fz71cdDEAz-5" value="&lt;font style=&quot;font-size: 26px;&quot;&gt;MODEL&lt;/font&gt;" style="rounded=0;whiteSpace=wrap;html=1;fontSize=26;" parent="1" vertex="1">
          <mxGeometry x="530" y="2660" width="220" height="120" as="geometry" />
        </mxCell>
        <mxCell id="tU3aZVx3h9fz71cdDEAz-7" value="&lt;font style=&quot;font-size: 26px;&quot;&gt;Dataset&lt;/font&gt;" style="rounded=0;whiteSpace=wrap;html=1;fontSize=26;" parent="1" vertex="1">
          <mxGeometry x="-350" y="2660" width="210" height="120" as="geometry" />
        </mxCell>
        <mxCell id="YsYuqRNG6A_aX4M2Omym-9" value="" style="rounded=0;whiteSpace=wrap;html=1;fillColor=none;gradientColor=none;fontSize=17;" parent="1" vertex="1">
          <mxGeometry x="-1215" y="130" width="410" height="870" as="geometry" />
        </mxCell>
        <mxCell id="-sLN44E5FuGDK6YIJdJi-24" value="&lt;font style=&quot;font-size: 17px;&quot;&gt;Upload Image&lt;/font&gt;" style="ellipse;whiteSpace=wrap;html=1;fontSize=17;" parent="1" vertex="1">
          <mxGeometry x="-1070" y="230" width="120" height="80" as="geometry" />
        </mxCell>
        <mxCell id="YsYuqRNG6A_aX4M2Omym-1" value="Extract Features" style="ellipse;whiteSpace=wrap;html=1;fontSize=17;" parent="1" vertex="1">
          <mxGeometry x="-1060" y="429.5" width="120" height="80" as="geometry" />
        </mxCell>
        <mxCell id="YsYuqRNG6A_aX4M2Omym-2" value="Load CNN model" style="ellipse;whiteSpace=wrap;html=1;fontSize=17;" parent="1" vertex="1">
          <mxGeometry x="-1060" y="530" width="120" height="80" as="geometry" />
        </mxCell>
        <mxCell id="YsYuqRNG6A_aX4M2Omym-3" value="Preprocess Image" style="ellipse;whiteSpace=wrap;html=1;fontSize=17;" parent="1" vertex="1">
          <mxGeometry x="-1060" y="329" width="120" height="80" as="geometry" />
        </mxCell>
        <mxCell id="tU3aZVx3h9fz71cdDEAz-11" value="" style="edgeStyle=none;curved=1;rounded=0;orthogonalLoop=1;jettySize=auto;html=1;fontSize=17;startSize=8;endSize=8;endArrow=none;endFill=0;startArrow=classic;startFill=1;dashed=1;" parent="1" source="YsYuqRNG6A_aX4M2Omym-4" target="tU3aZVx3h9fz71cdDEAz-10" edge="1">
          <mxGeometry relative="1" as="geometry" />
        </mxCell>
        <mxCell id="tU3aZVx3h9fz71cdDEAz-13" value="" style="edgeStyle=none;curved=1;rounded=0;orthogonalLoop=1;jettySize=auto;html=1;fontSize=17;startSize=8;endSize=8;endArrow=none;endFill=0;startArrow=classic;startFill=1;dashed=1;" parent="1" source="YsYuqRNG6A_aX4M2Omym-4" target="tU3aZVx3h9fz71cdDEAz-12" edge="1">
          <mxGeometry relative="1" as="geometry" />
        </mxCell>
        <mxCell id="YsYuqRNG6A_aX4M2Omym-4" value="Classification of&amp;nbsp;&lt;br style=&quot;font-size: 17px;&quot;&gt;image" style="ellipse;whiteSpace=wrap;html=1;fontSize=17;" parent="1" vertex="1">
          <mxGeometry x="-1060" y="625" width="120" height="80" as="geometry" />
        </mxCell>
        <mxCell id="YsYuqRNG6A_aX4M2Omym-5" value="&lt;font style=&quot;font-size: 17px;&quot;&gt;Select Image&lt;/font&gt;" style="ellipse;whiteSpace=wrap;html=1;fontSize=17;" parent="1" vertex="1">
          <mxGeometry x="-1070" y="140" width="120" height="80" as="geometry" />
        </mxCell>
        <mxCell id="YsYuqRNG6A_aX4M2Omym-6" value="Predict Output" style="ellipse;whiteSpace=wrap;html=1;fontSize=17;" parent="1" vertex="1">
          <mxGeometry x="-1060" y="803" width="120" height="80" as="geometry" />
        </mxCell>
        <mxCell id="YsYuqRNG6A_aX4M2Omym-7" value="View Results" style="ellipse;whiteSpace=wrap;html=1;fontSize=17;" parent="1" vertex="1">
          <mxGeometry x="-1060" y="910" width="120" height="80" as="geometry" />
        </mxCell>
        <mxCell id="YsYuqRNG6A_aX4M2Omym-11" value="User" style="shape=umlActor;verticalLabelPosition=bottom;verticalAlign=top;html=1;outlineConnect=0;fontSize=17;" parent="1" vertex="1">
          <mxGeometry x="-1440" y="500" width="80" height="110" as="geometry" />
        </mxCell>
        <mxCell id="YsYuqRNG6A_aX4M2Omym-12" value="SmartAgro: &lt;br&gt;Plant leaf disease classification system" style="shape=umlActor;verticalLabelPosition=bottom;verticalAlign=top;html=1;outlineConnect=0;fontSize=17;" parent="1" vertex="1">
          <mxGeometry x="-650" y="500" width="80" height="110" as="geometry" />
        </mxCell>
        <mxCell id="YsYuqRNG6A_aX4M2Omym-14" value="" style="endArrow=none;html=1;rounded=0;entryX=0.5;entryY=0.5;entryDx=0;entryDy=0;entryPerimeter=0;exitX=1;exitY=0.5;exitDx=0;exitDy=0;fontSize=17;" parent="1" source="YsYuqRNG6A_aX4M2Omym-5" target="YsYuqRNG6A_aX4M2Omym-12" edge="1">
          <mxGeometry width="50" height="50" relative="1" as="geometry">
            <mxPoint x="-720" y="550" as="sourcePoint" />
            <mxPoint x="-670" y="500" as="targetPoint" />
          </mxGeometry>
        </mxCell>
        <mxCell id="YsYuqRNG6A_aX4M2Omym-15" value="" style="endArrow=none;html=1;rounded=0;entryX=0.5;entryY=0.5;entryDx=0;entryDy=0;entryPerimeter=0;exitX=1;exitY=0.5;exitDx=0;exitDy=0;fontSize=17;" parent="1" source="YsYuqRNG6A_aX4M2Omym-1" target="YsYuqRNG6A_aX4M2Omym-12" edge="1">
          <mxGeometry width="50" height="50" relative="1" as="geometry">
            <mxPoint x="-950" y="200" as="sourcePoint" />
            <mxPoint x="-560" y="518" as="targetPoint" />
          </mxGeometry>
        </mxCell>
        <mxCell id="YsYuqRNG6A_aX4M2Omym-16" value="" style="endArrow=none;html=1;rounded=0;entryX=0.5;entryY=0.5;entryDx=0;entryDy=0;entryPerimeter=0;exitX=1;exitY=0.5;exitDx=0;exitDy=0;fontSize=17;" parent="1" source="-sLN44E5FuGDK6YIJdJi-24" target="YsYuqRNG6A_aX4M2Omym-12" edge="1">
          <mxGeometry width="50" height="50" relative="1" as="geometry">
            <mxPoint x="-940" y="210" as="sourcePoint" />
            <mxPoint x="-550" y="528" as="targetPoint" />
          </mxGeometry>
        </mxCell>
        <mxCell id="YsYuqRNG6A_aX4M2Omym-17" value="" style="endArrow=none;html=1;rounded=0;exitX=1;exitY=0.5;exitDx=0;exitDy=0;entryX=0.5;entryY=0.5;entryDx=0;entryDy=0;entryPerimeter=0;fontSize=17;" parent="1" source="YsYuqRNG6A_aX4M2Omym-3" target="YsYuqRNG6A_aX4M2Omym-12" edge="1">
          <mxGeometry width="50" height="50" relative="1" as="geometry">
            <mxPoint x="-930" y="220" as="sourcePoint" />
            <mxPoint x="-460" y="530" as="targetPoint" />
          </mxGeometry>
        </mxCell>
        <mxCell id="YsYuqRNG6A_aX4M2Omym-18" value="" style="endArrow=none;html=1;rounded=0;entryX=0.5;entryY=0.5;entryDx=0;entryDy=0;entryPerimeter=0;exitX=1;exitY=0.5;exitDx=0;exitDy=0;fontSize=17;" parent="1" source="YsYuqRNG6A_aX4M2Omym-7" target="YsYuqRNG6A_aX4M2Omym-12" edge="1">
          <mxGeometry width="50" height="50" relative="1" as="geometry">
            <mxPoint x="-920" y="230" as="sourcePoint" />
            <mxPoint x="-530" y="548" as="targetPoint" />
          </mxGeometry>
        </mxCell>
        <mxCell id="YsYuqRNG6A_aX4M2Omym-19" value="" style="endArrow=none;html=1;rounded=0;exitX=1;exitY=0.5;exitDx=0;exitDy=0;entryX=0.5;entryY=0.5;entryDx=0;entryDy=0;entryPerimeter=0;fontSize=17;" parent="1" source="YsYuqRNG6A_aX4M2Omym-4" target="YsYuqRNG6A_aX4M2Omym-12" edge="1">
          <mxGeometry width="50" height="50" relative="1" as="geometry">
            <mxPoint x="-950" y="503" as="sourcePoint" />
            <mxPoint x="-390" y="550" as="targetPoint" />
          </mxGeometry>
        </mxCell>
        <mxCell id="YsYuqRNG6A_aX4M2Omym-20" value="" style="endArrow=none;html=1;rounded=0;exitX=1;exitY=0.5;exitDx=0;exitDy=0;entryX=0.5;entryY=0.5;entryDx=0;entryDy=0;entryPerimeter=0;fontSize=17;" parent="1" source="YsYuqRNG6A_aX4M2Omym-2" target="YsYuqRNG6A_aX4M2Omym-12" edge="1">
          <mxGeometry width="50" height="50" relative="1" as="geometry">
            <mxPoint x="-940" y="513" as="sourcePoint" />
            <mxPoint x="-570" y="510" as="targetPoint" />
          </mxGeometry>
        </mxCell>
        <mxCell id="YsYuqRNG6A_aX4M2Omym-21" value="" style="endArrow=none;html=1;rounded=0;entryX=0;entryY=0.5;entryDx=0;entryDy=0;exitX=0.5;exitY=0.5;exitDx=0;exitDy=0;exitPerimeter=0;fontSize=17;" parent="1" source="YsYuqRNG6A_aX4M2Omym-11" target="YsYuqRNG6A_aX4M2Omym-5" edge="1">
          <mxGeometry width="50" height="50" relative="1" as="geometry">
            <mxPoint x="-930" y="523" as="sourcePoint" />
            <mxPoint x="-540" y="538" as="targetPoint" />
          </mxGeometry>
        </mxCell>
        <mxCell id="YsYuqRNG6A_aX4M2Omym-22" value="" style="endArrow=none;html=1;rounded=0;entryX=0;entryY=0.5;entryDx=0;entryDy=0;exitX=0.5;exitY=0.5;exitDx=0;exitDy=0;exitPerimeter=0;fontSize=17;" parent="1" source="YsYuqRNG6A_aX4M2Omym-11" target="-sLN44E5FuGDK6YIJdJi-24" edge="1">
          <mxGeometry width="50" height="50" relative="1" as="geometry">
            <mxPoint x="-920" y="533" as="sourcePoint" />
            <mxPoint x="-530" y="548" as="targetPoint" />
          </mxGeometry>
        </mxCell>
        <mxCell id="YsYuqRNG6A_aX4M2Omym-23" value="" style="endArrow=none;html=1;rounded=0;entryX=0;entryY=0.5;entryDx=0;entryDy=0;exitX=0.5;exitY=0.5;exitDx=0;exitDy=0;exitPerimeter=0;fontSize=17;" parent="1" source="YsYuqRNG6A_aX4M2Omym-11" target="YsYuqRNG6A_aX4M2Omym-7" edge="1">
          <mxGeometry width="50" height="50" relative="1" as="geometry">
            <mxPoint x="-910" y="543" as="sourcePoint" />
            <mxPoint x="-520" y="558" as="targetPoint" />
          </mxGeometry>
        </mxCell>
        <mxCell id="tU3aZVx3h9fz71cdDEAz-10" value="Classify Disease type" style="ellipse;whiteSpace=wrap;html=1;fontSize=17;" parent="1" vertex="1">
          <mxGeometry x="-970" y="726" width="120" height="80" as="geometry" />
        </mxCell>
        <mxCell id="tU3aZVx3h9fz71cdDEAz-12" value="Classify healthy or unhealthy" style="ellipse;whiteSpace=wrap;html=1;fontSize=17;" parent="1" vertex="1">
          <mxGeometry x="-1180" y="725" width="120" height="80" as="geometry" />
        </mxCell>
        <mxCell id="tU3aZVx3h9fz71cdDEAz-15" value="&lt;span style=&quot;color: rgb(0, 0, 0); font-family: Helvetica; font-size: 17px; font-style: normal; font-variant-ligatures: normal; font-variant-caps: normal; font-weight: 400; letter-spacing: normal; orphans: 2; text-align: center; text-indent: 0px; text-transform: none; widows: 2; word-spacing: 0px; -webkit-text-stroke-width: 0px; background-color: rgb(251, 251, 251); text-decoration-thickness: initial; text-decoration-style: initial; text-decoration-color: initial; float: none; display: inline !important;&quot;&gt;&amp;lt;&amp;lt;extend&amp;gt;&amp;gt;&lt;/span&gt;" style="text;whiteSpace=wrap;html=1;fontSize=17;" parent="1" vertex="1">
          <mxGeometry x="-1120" y="686" width="100" height="40" as="geometry" />
        </mxCell>
        <mxCell id="tU3aZVx3h9fz71cdDEAz-16" value="&lt;span style=&quot;color: rgb(0, 0, 0); font-family: Helvetica; font-size: 17px; font-style: normal; font-variant-ligatures: normal; font-variant-caps: normal; font-weight: 400; letter-spacing: normal; orphans: 2; text-align: center; text-indent: 0px; text-transform: none; widows: 2; word-spacing: 0px; -webkit-text-stroke-width: 0px; background-color: rgb(251, 251, 251); text-decoration-thickness: initial; text-decoration-style: initial; text-decoration-color: initial; float: none; display: inline !important;&quot;&gt;&amp;lt;&amp;lt;extend&amp;gt;&amp;gt;&lt;/span&gt;" style="text;whiteSpace=wrap;html=1;fontSize=17;" parent="1" vertex="1">
          <mxGeometry x="-950" y="696" width="100" height="40" as="geometry" />
        </mxCell>
        <mxCell id="tU3aZVx3h9fz71cdDEAz-27" value="" style="edgeStyle=none;curved=1;rounded=0;orthogonalLoop=1;jettySize=auto;html=1;fontSize=16;startSize=8;endSize=8;" parent="1" source="tU3aZVx3h9fz71cdDEAz-20" target="tU3aZVx3h9fz71cdDEAz-26" edge="1">
          <mxGeometry relative="1" as="geometry" />
        </mxCell>
        <mxCell id="tU3aZVx3h9fz71cdDEAz-20" value="Display Result&amp;nbsp;" style="whiteSpace=wrap;html=1;fontSize=16;rounded=0;" parent="1" vertex="1">
          <mxGeometry x="350" y="1950" width="120" height="60" as="geometry" />
        </mxCell>
        <mxCell id="tU3aZVx3h9fz71cdDEAz-23" value="" style="endArrow=classic;html=1;rounded=0;fontSize=16;startSize=8;endSize=8;curved=0;entryX=0.75;entryY=0;entryDx=0;entryDy=0;exitX=0.5;exitY=1;exitDx=0;exitDy=0;" parent="1" source="_szJ1MI2SbH8s3XTZt4Q-85" target="tU3aZVx3h9fz71cdDEAz-20" edge="1">
          <mxGeometry width="50" height="50" relative="1" as="geometry">
            <mxPoint x="479" y="2040" as="sourcePoint" />
            <mxPoint x="529" y="1990" as="targetPoint" />
            <Array as="points">
              <mxPoint x="543" y="1930" />
              <mxPoint x="490" y="1930" />
              <mxPoint x="440" y="1930" />
            </Array>
          </mxGeometry>
        </mxCell>
        <mxCell id="tU3aZVx3h9fz71cdDEAz-25" value="" style="endArrow=classic;html=1;rounded=0;fontSize=16;startSize=8;endSize=8;curved=0;entryX=0.25;entryY=0;entryDx=0;entryDy=0;exitX=0.5;exitY=1;exitDx=0;exitDy=0;" parent="1" source="_szJ1MI2SbH8s3XTZt4Q-81" target="tU3aZVx3h9fz71cdDEAz-20" edge="1">
          <mxGeometry width="50" height="50" relative="1" as="geometry">
            <mxPoint x="553" y="1961" as="sourcePoint" />
            <mxPoint x="465" y="2080" as="targetPoint" />
            <Array as="points">
              <mxPoint x="304" y="1930" />
              <mxPoint x="380" y="1930" />
            </Array>
          </mxGeometry>
        </mxCell>
        <mxCell id="tU3aZVx3h9fz71cdDEAz-26" value="End" style="ellipse;whiteSpace=wrap;html=1;fontSize=20;rounded=0;" parent="1" vertex="1">
          <mxGeometry x="350" y="2050" width="120" height="60" as="geometry" />
        </mxCell>
        <mxCell id="tU3aZVx3h9fz71cdDEAz-28" value="" style="edgeStyle=orthogonalEdgeStyle;rounded=0;orthogonalLoop=1;jettySize=auto;html=1;exitX=0;exitY=0.5;exitDx=0;exitDy=0;fontSize=16;entryX=0.5;entryY=0;entryDx=0;entryDy=0;" parent="1" target="_szJ1MI2SbH8s3XTZt4Q-81" edge="1">
          <mxGeometry relative="1" as="geometry">
            <mxPoint x="295" y="1890" as="targetPoint" />
            <mxPoint x="377" y="1810" as="sourcePoint" />
            <Array as="points" />
          </mxGeometry>
        </mxCell>
        <mxCell id="_szJ1MI2SbH8s3XTZt4Q-81" value="Unhealthy Plant" style="rounded=0;whiteSpace=wrap;html=1;fontSize=16;" parent="1" vertex="1">
          <mxGeometry x="244" y="1850" width="120" height="60" as="geometry" />
        </mxCell>
      </root>
    </mxGraphModel>
  </diagram>
</mxfile>
